<svg xmlns="http://www.w3.org/2000/svg" xmlns:xlink="http://www.w3.org/1999/xlink" width="500" zoomAndPan="magnify" viewBox="0 0 375 374.999991" height="500" preserveAspectRatio="xMidYMid meet" version="1.0"><defs><g/></defs><g fill="#c8a84a" fill-opacity="1"><g transform="translate(28.366746, 291.125031)"><g><path d="M 8.5 -177 C 12.664062 -176.832031 18.289062 -176.664062 25.375 -176.5 C 32.457031 -176.332031 39.5 -176.25 46.5 -176.25 C 54.5 -176.25 62.25 -176.332031 69.75 -176.5 C 77.25 -176.664062 82.582031 -176.75 85.75 -176.75 C 101.25 -176.75 114.125 -175.039062 124.375 -171.625 C 134.625 -168.207031 142.289062 -163.25 147.375 -156.75 C 152.457031 -150.25 155 -142.414062 155 -133.25 C 155 -127.582031 153.832031 -121.875 151.5 -116.125 C 149.164062 -110.375 145.207031 -105.039062 139.625 -100.125 C 134.039062 -95.207031 126.414062 -91.289062 116.75 -88.375 C 107.082031 -85.457031 94.914062 -84 80.25 -84 L 56.25 -84 L 56.25 -89 L 77.75 -89 C 87.582031 -89 95.039062 -90.875 100.125 -94.625 C 105.207031 -98.375 108.707031 -103.375 110.625 -109.625 C 112.539062 -115.875 113.5 -122.832031 113.5 -130.5 C 113.5 -143.664062 111.164062 -153.875 106.5 -161.125 C 101.832031 -168.375 93.832031 -172 82.5 -172 C 76 -172 71.789062 -170.582031 69.875 -167.75 C 67.957031 -164.914062 67 -159.164062 67 -150.5 L 67 -26.5 C 67 -20.5 67.457031 -16 68.375 -13 C 69.289062 -10 71.082031 -8 73.75 -7 C 76.414062 -6 80.414062 -5.332031 85.75 -5 L 85.75 0 C 81.25 -0.332031 75.582031 -0.539062 68.75 -0.625 C 61.914062 -0.707031 55 -0.75 48 -0.75 C 40 -0.75 32.457031 -0.707031 25.375 -0.625 C 18.289062 -0.539062 12.664062 -0.332031 8.5 0 L 8.5 -5 C 13.832031 -5.332031 17.832031 -6 20.5 -7 C 23.164062 -8 24.957031 -10 25.875 -13 C 26.789062 -16 27.25 -20.5 27.25 -26.5 L 27.25 -150.5 C 27.25 -156.664062 26.789062 -161.207031 25.875 -164.125 C 24.957031 -167.039062 23.125 -169.039062 20.375 -170.125 C 17.625 -171.207031 13.664062 -171.832031 8.5 -172 Z M 55.75 -88.25 C 62.914062 -88.082031 69.125 -87.75 74.375 -87.25 C 79.625 -86.75 84.25 -86.289062 88.25 -85.875 C 92.25 -85.457031 95.832031 -85.164062 99 -85 C 114.164062 -83.664062 125.375 -80.414062 132.625 -75.25 C 139.875 -70.082031 144.582031 -62.332031 146.75 -52 L 152.5 -26.25 C 154 -19.582031 155.582031 -14.914062 157.25 -12.25 C 158.914062 -9.582031 161.332031 -8.25 164.5 -8.25 C 166.664062 -8.414062 168.457031 -8.957031 169.875 -9.875 C 171.289062 -10.789062 172.832031 -12.164062 174.5 -14 L 178 -11 C 173.5 -5.832031 168.664062 -2.125 163.5 0.125 C 158.332031 2.375 152.082031 3.5 144.75 3.5 C 135.75 3.5 128.332031 1.582031 122.5 -2.25 C 116.664062 -6.082031 112.832031 -13.164062 111 -23.5 L 106.5 -48.5 C 105.332031 -55.5 103.914062 -61.625 102.25 -66.875 C 100.582031 -72.125 98.289062 -76.289062 95.375 -79.375 C 92.457031 -82.457031 88.414062 -84 83.25 -84 L 56.25 -84 Z M 55.75 -88.25 "/></g></g></g><g fill="#c8a84a" fill-opacity="1"><g transform="translate(200.61469, 291.125031)"><g><path d="M 71 -180.25 C 80.832031 -180.25 88.414062 -179.207031 93.75 -177.125 C 99.082031 -175.039062 103.664062 -172.832031 107.5 -170.5 C 109.5 -169.332031 111.125 -168.457031 112.375 -167.875 C 113.625 -167.289062 114.832031 -167 116 -167 C 117.664062 -167 118.875 -167.914062 119.625 -169.75 C 120.375 -171.582031 121 -174.332031 121.5 -178 L 127.25 -178 C 127.082031 -174.832031 126.875 -171.039062 126.625 -166.625 C 126.375 -162.207031 126.207031 -156.414062 126.125 -149.25 C 126.039062 -142.082031 126 -132.664062 126 -121 L 120.25 -121 C 119.582031 -129.664062 117.582031 -138.082031 114.25 -146.25 C 110.914062 -154.414062 106.207031 -161.125 100.125 -166.375 C 94.039062 -171.625 86.582031 -174.25 77.75 -174.25 C 69.75 -174.25 63.164062 -172 58 -167.5 C 52.832031 -163 50.25 -156.75 50.25 -148.75 C 50.25 -142.082031 51.914062 -136.375 55.25 -131.625 C 58.582031 -126.875 63.457031 -122.25 69.875 -117.75 C 76.289062 -113.25 84.082031 -107.832031 93.25 -101.5 C 101.25 -96.332031 108.414062 -91.164062 114.75 -86 C 121.082031 -80.832031 126.164062 -75 130 -68.5 C 133.832031 -62 135.75 -54.25 135.75 -45.25 C 135.75 -34.25 132.875 -25.164062 127.125 -18 C 121.375 -10.832031 113.832031 -5.457031 104.5 -1.875 C 95.164062 1.707031 84.914062 3.5 73.75 3.5 C 63.414062 3.5 55.164062 2.5 49 0.5 C 42.832031 -1.5 37.664062 -3.582031 33.5 -5.75 C 29.832031 -8.082031 27 -9.25 25 -9.25 C 23.332031 -9.25 22.125 -8.332031 21.375 -6.5 C 20.625 -4.664062 20 -1.914062 19.5 1.75 L 13.75 1.75 C 14.082031 -2.25 14.289062 -6.914062 14.375 -12.25 C 14.457031 -17.582031 14.539062 -24.539062 14.625 -33.125 C 14.707031 -41.707031 14.75 -52.582031 14.75 -65.75 L 20.5 -65.75 C 21.164062 -54.75 23.039062 -44.457031 26.125 -34.875 C 29.207031 -25.289062 33.957031 -17.582031 40.375 -11.75 C 46.789062 -5.914062 55.332031 -3 66 -3 C 71.832031 -3 77.039062 -4.039062 81.625 -6.125 C 86.207031 -8.207031 89.914062 -11.332031 92.75 -15.5 C 95.582031 -19.664062 97 -24.832031 97 -31 C 97 -38 95.375 -44.082031 92.125 -49.25 C 88.875 -54.414062 84.457031 -59.25 78.875 -63.75 C 73.289062 -68.25 66.832031 -72.832031 59.5 -77.5 C 51.664062 -82.664062 44.332031 -87.832031 37.5 -93 C 30.664062 -98.164062 25.207031 -104.082031 21.125 -110.75 C 17.039062 -117.414062 15 -125.332031 15 -134.5 C 15 -145 17.625 -153.625 22.875 -160.375 C 28.125 -167.125 35.039062 -172.125 43.625 -175.375 C 52.207031 -178.625 61.332031 -180.25 71 -180.25 Z M 71 -180.25 "/></g></g></g></svg>